<svg width="25" height="24" viewBox="0 0 25 24" fill="none" xmlns="http://www.w3.org/2000/svg">
<mask id="mask0_410_214" style="mask-type:alpha" maskUnits="userSpaceOnUse" x="0" y="0" width="25" height="24">
<rect x="0.700684" width="24" height="24" fill="#D9D9D9"/>
</mask>
<g mask="url(#mask0_410_214)">
<path d="M11.3007 16.6L18.3507 9.55L16.9507 8.15L11.3007 13.8L8.45068 10.95L7.05068 12.35L11.3007 16.6ZM12.7007 22C11.3174 22 10.0174 21.7375 8.80068 21.2125C7.58402 20.6875 6.52568 19.975 5.62568 19.075C4.72568 18.175 4.01318 17.1167 3.48818 15.9C2.96318 14.6833 2.70068 13.3833 2.70068 12C2.70068 10.6167 2.96318 9.31667 3.48818 8.1C4.01318 6.88333 4.72568 5.825 5.62568 4.925C6.52568 4.025 7.58402 3.3125 8.80068 2.7875C10.0174 2.2625 11.3174 2 12.7007 2C14.084 2 15.384 2.2625 16.6007 2.7875C17.8174 3.3125 18.8757 4.025 19.7757 4.925C20.6757 5.825 21.3882 6.88333 21.9132 8.1C22.4382 9.31667 22.7007 10.6167 22.7007 12C22.7007 13.3833 22.4382 14.6833 21.9132 15.9C21.3882 17.1167 20.6757 18.175 19.7757 19.075C18.8757 19.975 17.8174 20.6875 16.6007 21.2125C15.384 21.7375 14.084 22 12.7007 22Z" fill="#4ACE63"/>
</g>
</svg>
