<svg width="60" height="60" viewBox="0 0 60 60" fill="none" xmlns="http://www.w3.org/2000/svg">
<g clip-path="url(#clip0_1755_681)">
<path d="M35.625 0C36.1188 0.101562 36.5375 0.190625 36.9625 0.479687L49.2359 12.7859C50.0391 13.8719 50.1094 14.6984 50.0922 16.1109C50.0016 19.5156 49.9688 22.9188 49.9953 26.3219C49.8078 27.6875 48.8703 28.5688 47.5234 28.6719C36.6484 28.7313 27.9047 38.5125 29.9891 49.4906C30.4922 52.1406 31.55 54.2 32.8141 56.45C33.55 58.0031 32.4844 59.9797 30.7172 60.0016H9.44844C4.22813 59.7828 -0.378125 54.7063 0.1 49.4547C0 36.7766 -0.025 24.0984 0.025 11.4219L0.1 10.5469C-0.31875 5.14062 4.30625 0.189063 9.56563 0H35.625Z" fill="#112D93"/>
<path d="M11.1704 29.2078L26.5579 29.1906C29.2969 29.825 29.2657 33.575 26.5579 34.2094H11.2704C8.59694 33.5922 8.51881 29.9437 11.1719 29.2094L11.1704 29.2078Z" fill="#FEFEFE"/>
<path d="M11.1703 42.0984H22.4499C25.1828 42.7266 25.0046 46.7625 22.2312 47.0969C18.8624 47.5016 14.7343 46.8438 11.2874 47.0813C8.60307 46.4641 8.51713 42.8109 11.1703 42.0984Z" fill="#FEFEFE"/>
<path d="M46.0016 35.7766C49.6797 35.4469 53.0219 37.0953 55.7797 39.3781C61.0922 43.7766 60.9859 46.5266 55.6625 50.8563C49.9141 55.5328 44.1219 55.5406 38.375 50.8563C33.0734 46.5344 32.9484 43.7688 38.2578 39.3781C40.4094 37.5985 43.1719 36.0313 46.0031 35.7781L46.0016 35.7766Z" fill="#112D93"/>
<path d="M46.5813 41.5156C50.7938 40.9703 52.15 47.1828 48.1281 48.4562C43.2266 50.0094 41.5375 42.1688 46.5813 41.5156Z" fill="#FEFEFE"/>
</g>
<defs>
<clipPath id="clip0_1755_681">
<rect width="59.7094" height="60" fill="white"/>
</clipPath>
</defs>
</svg>
