<svg width="24" height="24" viewBox="0 0 24 24" fill="none" xmlns="http://www.w3.org/2000/svg">
<path opacity="0.993" fill-rule="evenodd" clip-rule="evenodd" d="M5.51319 3.00249C9.17674 2.99585 12.8403 3.00249 16.5037 3.0224C17.2935 3.22814 17.7913 3.7259 17.997 4.51568C18.0169 5.86951 18.0236 7.22341 18.0169 8.5774C17.098 8.58218 16.3878 8.96713 15.8865 9.7322C14.6786 12.2011 13.4707 14.67 12.2628 17.1389C11.9649 17.946 11.9716 18.749 12.2827 19.548C10.0262 19.5746 7.76972 19.5746 5.51319 19.548C4.72341 19.3423 4.22565 18.8445 4.01991 18.0547C3.99336 13.5417 3.99336 9.02869 4.01991 4.51568C4.2329 3.72531 4.73066 3.22091 5.51319 3.00249ZM6.54853 6.82528C9.0971 6.81863 11.6456 6.82528 14.1941 6.8452C14.7454 6.9721 14.9113 7.29732 14.6919 7.8208C14.5619 7.97539 14.396 8.06168 14.1941 8.07964C11.6456 8.1062 9.09706 8.1062 6.54853 8.07964C5.99725 7.95273 5.83136 7.62751 6.05077 7.10403C6.18871 6.95231 6.35464 6.85937 6.54853 6.82528ZM6.54853 9.37382C8.88474 9.36717 11.2209 9.37382 13.557 9.39373C14.1083 9.52063 14.2742 9.84585 14.0548 10.3693C13.9248 10.5239 13.7589 10.6102 13.557 10.6282C11.2208 10.6547 8.8847 10.6547 6.54853 10.6282C5.99725 10.5013 5.83136 10.176 6.05077 9.65256C6.18871 9.50084 6.35464 9.4079 6.54853 9.37382ZM6.54853 11.9223C8.45997 11.9157 10.3714 11.9223 12.2827 11.9423C12.7543 12.0158 12.9468 12.2879 12.8601 12.7586C12.7566 13.0195 12.5641 13.1589 12.2827 13.1767C10.3713 13.2033 8.45993 13.2033 6.54853 13.1767C5.99725 13.0498 5.83136 12.7246 6.05077 12.2011C6.18871 12.0494 6.35464 11.9564 6.54853 11.9223ZM6.54853 14.4709C8.03524 14.4642 9.52187 14.4709 11.0085 14.4908C11.4801 14.5643 11.6725 14.8364 11.5859 15.3071C11.4823 15.5681 11.2898 15.7074 11.0085 15.7252C9.52183 15.7518 8.03516 15.7518 6.54853 15.7252C5.99725 15.5983 5.83136 15.2731 6.05077 14.7496C6.18871 14.5979 6.35464 14.505 6.54853 14.4709Z" fill="#0E082B"/>
<path opacity="0.984" fill-rule="evenodd" clip-rule="evenodd" d="M17.4793 9.35391C17.6689 9.36562 17.8548 9.39879 18.0368 9.45346C18.5063 9.66826 18.9709 9.89392 19.4306 10.1304C19.9782 10.5661 20.1308 11.1169 19.8885 11.783C18.701 14.2376 17.4931 16.6799 16.2648 19.11C16.0308 19.3894 15.7454 19.5951 15.4087 19.7272C14.9839 19.8733 14.5592 20.0192 14.1344 20.1653C13.75 20.2419 13.4779 20.1025 13.3181 19.7471C13.1932 19.3592 13.0605 18.9743 12.9199 18.5923C12.7871 18.1408 12.7871 17.6895 12.9199 17.2384C14.0771 14.831 15.2451 12.4285 16.4241 10.0309C16.6646 9.62876 17.0163 9.40309 17.4793 9.35391Z" fill="#0E082B"/>
</svg>
