<svg width="24" height="24" viewBox="0 0 24 24" fill="none" xmlns="http://www.w3.org/2000/svg">
<path opacity="0.988" fill-rule="evenodd" clip-rule="evenodd" d="M9.66848 3.0027C11.2256 2.99549 12.7826 3.0027 14.3396 3.02433C15.5044 3.3241 16.1892 4.06658 16.394 5.25176C16.4156 5.7273 16.4229 6.20307 16.4156 6.67904C17.2231 6.67182 18.0305 6.67904 18.8377 6.70067C20.0029 6.91437 20.7166 7.59917 20.9786 8.75509C21.0075 9.31736 21.0075 9.87962 20.9786 10.4419C20.1625 11.986 18.8866 12.887 17.1509 13.1451C16.2716 13.1667 15.3921 13.1739 14.5126 13.1667C14.5198 12.6763 14.5126 12.1861 14.491 11.6962C14.3487 11.0637 13.9666 10.6528 13.3448 10.4635C12.8999 10.4158 12.453 10.3942 12.004 10.3986C11.555 10.3942 11.1081 10.4158 10.6633 10.4635C10.0414 10.6528 9.65939 11.0637 9.5171 11.6962C9.49547 12.1861 9.48825 12.6763 9.49547 13.1667C8.61592 13.1739 7.73649 13.1667 6.85716 13.1451C5.12148 12.887 3.84557 11.986 3.02944 10.4419C3.0006 9.87962 3.0006 9.31736 3.02944 8.75509C3.29148 7.59917 4.00513 6.91437 5.17037 6.70067C5.9776 6.67904 6.78493 6.67182 7.59243 6.67904C7.5852 6.20307 7.59243 5.7273 7.61405 5.25176C7.82698 4.0659 8.51177 3.31622 9.66848 3.0027ZM10.1442 4.38674C11.3842 4.37953 12.624 4.38674 13.8638 4.40836C14.391 4.44545 14.7442 4.71216 14.9235 5.20851C14.9844 5.69595 15.006 6.18615 14.9884 6.67904C12.9988 6.67904 11.0093 6.67904 9.01971 6.67904C9.01253 6.24627 9.01971 5.81376 9.04134 5.38151C9.1867 4.79613 9.55434 4.46455 10.1442 4.38674Z" fill="#0E082B"/>
<path opacity="0.971" fill-rule="evenodd" clip-rule="evenodd" d="M10.9657 11.7394C11.6434 11.7322 12.3211 11.7394 12.9985 11.761C13.0604 11.7811 13.1108 11.8172 13.1499 11.8692C13.1787 12.8783 13.1787 13.8876 13.1499 14.8967C13.1283 14.9184 13.1066 14.94 13.085 14.9616C12.397 15.0324 11.7049 15.0468 11.009 15.0049C10.9471 14.9847 10.8966 14.9487 10.8576 14.8967C10.8287 13.8876 10.8287 12.8783 10.8576 11.8692C10.9028 11.8314 10.9388 11.7881 10.9657 11.7394Z" fill="#0E082B"/>
<path opacity="0.993" fill-rule="evenodd" clip-rule="evenodd" d="M3.00755 12.6909C4.06745 13.7182 5.33614 14.3165 6.81364 14.4859C7.70738 14.5075 8.60125 14.5147 9.4952 14.5075C9.45719 15.4999 9.91855 16.1126 10.8792 16.3457C11.6289 16.3745 12.3786 16.3745 13.1283 16.3457C14.089 16.1126 14.5503 15.4999 14.5123 14.5075C15.4063 14.5147 16.3002 14.5075 17.1939 14.4859C18.6668 14.3224 19.9283 13.7241 20.9784 12.6909C21.0072 14.767 21.0072 16.843 20.9784 18.9191C20.7249 20.0376 20.0401 20.7224 18.9239 20.9735C14.3105 21.0024 9.69706 21.0024 5.0836 20.9735C4.05443 20.7516 3.38403 20.1389 3.07242 19.1354C3.00855 16.9889 2.98693 14.8407 3.00755 12.6909Z" fill="#0E082B"/>
</svg>
