<svg width="24" height="24" viewBox="0 0 24 24" fill="none" xmlns="http://www.w3.org/2000/svg">
<path opacity="0.988" fill-rule="evenodd" clip-rule="evenodd" d="M9.66823 3.0027C11.2254 2.99549 12.7824 3.0027 14.3393 3.02433C15.5041 3.3241 16.1889 4.06658 16.3938 5.25176C16.4154 5.7273 16.4226 6.20307 16.4154 6.67904C17.2229 6.67182 18.0302 6.67904 18.8375 6.70067C20.0027 6.91437 20.7163 7.59917 20.9784 8.75509C21.0072 9.31736 21.0072 9.87962 20.9784 10.4419C20.1622 11.986 18.8863 12.887 17.1507 13.1451C16.2713 13.1667 15.3919 13.1739 14.5124 13.1667C14.5196 12.6763 14.5124 12.1861 14.4907 11.6962C14.3484 11.0637 13.9664 10.6528 13.3446 10.4635C12.8997 10.4158 12.4528 10.3942 12.0038 10.3986C11.5548 10.3942 11.1079 10.4158 10.663 10.4635C10.0412 10.6528 9.65915 11.0637 9.51685 11.6962C9.49523 12.1861 9.48801 12.6763 9.49523 13.1667C8.61567 13.1739 7.73625 13.1667 6.85691 13.1451C5.12124 12.887 3.84533 11.986 3.02919 10.4419C3.00036 9.87962 3.00036 9.31736 3.02919 8.75509C3.29124 7.59917 4.00488 6.91437 5.17012 6.70067C5.97736 6.67904 6.78468 6.67182 7.59218 6.67904C7.58496 6.20307 7.59218 5.7273 7.61381 5.25176C7.82673 4.0659 8.51153 3.31622 9.66823 3.0027ZM10.144 4.38674C11.384 4.37953 12.6238 4.38674 13.8636 4.40836C14.3908 4.44545 14.744 4.71216 14.9232 5.20851C14.9842 5.69595 15.0058 6.18615 14.9881 6.67904C12.9986 6.67904 11.009 6.67904 9.01947 6.67904C9.01229 6.24627 9.01947 5.81376 9.04109 5.38151C9.18646 4.79613 9.55409 4.46455 10.144 4.38674Z" fill="white"/>
<path opacity="0.971" fill-rule="evenodd" clip-rule="evenodd" d="M10.9657 11.7394C11.6434 11.7322 12.3211 11.7394 12.9985 11.761C13.0604 11.7811 13.1108 11.8172 13.1499 11.8692C13.1787 12.8783 13.1787 13.8876 13.1499 14.8967C13.1283 14.9184 13.1066 14.94 13.085 14.9616C12.397 15.0324 11.7049 15.0468 11.009 15.0049C10.9471 14.9847 10.8966 14.9487 10.8576 14.8967C10.8287 13.8876 10.8287 12.8783 10.8576 11.8692C10.9028 11.8314 10.9388 11.7881 10.9657 11.7394Z" fill="white"/>
<path opacity="0.993" fill-rule="evenodd" clip-rule="evenodd" d="M3.00755 12.6909C4.06745 13.7182 5.33614 14.3165 6.81364 14.4859C7.70738 14.5075 8.60125 14.5147 9.4952 14.5075C9.45719 15.4999 9.91855 16.1126 10.8792 16.3457C11.6289 16.3745 12.3786 16.3745 13.1283 16.3457C14.089 16.1126 14.5503 15.4999 14.5123 14.5075C15.4063 14.5147 16.3002 14.5075 17.1939 14.4859C18.6668 14.3224 19.9283 13.7241 20.9784 12.6909C21.0072 14.767 21.0072 16.843 20.9784 18.9191C20.7249 20.0376 20.0401 20.7224 18.9239 20.9735C14.3105 21.0024 9.69706 21.0024 5.0836 20.9735C4.05443 20.7516 3.38403 20.1389 3.07242 19.1354C3.00855 16.9889 2.98693 14.8407 3.00755 12.6909Z" fill="white"/>
</svg>
