<svg width="60" height="52" viewBox="0 0 60 52" fill="none" xmlns="http://www.w3.org/2000/svg">
<g clip-path="url(#clip0_1761_704)">
<path d="M0 13.3751V12.3201C0.310532 11.6878 0.594874 11.1341 1.29077 10.8572L29.2948 0.074641C29.8111 -0.0263754 30.3872 -0.0413408 30.8848 0.130761L58.5558 10.7786C60.434 11.598 60.4939 13.8615 58.6718 14.8081C49.5579 17.9695 40.5562 22.2534 31.4348 25.3026C29.6614 25.8974 29.6352 25.6542 27.9778 25.0668C19.0098 21.9054 10.2775 18.0107 1.32444 14.8043C0.636029 14.5462 0.366652 13.9363 0 13.3751Z" fill="#112D93"/>
<path d="M-8.56626e-05 25.0932C0.430169 24.2215 0.823011 23.9446 1.67604 23.548C3.47189 22.7212 5.54085 22.1974 7.35166 21.3631L7.73702 21.3893L13.3565 23.6266L8.46659 25.5309L8.31693 25.7891L30.0317 34.0799C36.7736 31.4984 43.5043 28.8944 50.235 26.2867C50.4969 26.1857 51.7278 25.8452 51.7877 25.7891C51.9897 25.5983 51.7241 25.5908 51.623 25.5459C50.0442 24.835 48.1997 24.4048 46.6321 23.6228L52.3451 21.3556L52.723 21.3855C54.5226 22.3358 57.1789 22.796 58.8775 23.7912C60.4339 24.7041 60.3292 26.8404 58.7241 27.6261C49.1575 31.244 39.6582 35.0901 30.0429 38.562L29.1749 38.3787C19.7093 34.6112 10.0567 31.229 0.692064 27.2557L-0.00756836 26.2568V25.0857L-8.56626e-05 25.0932Z" fill="#112D93"/>
<path d="M0 37.9822C0.359169 37.4247 0.553719 36.9758 1.16356 36.6278C2.31215 35.9731 5.38006 34.9031 6.73443 34.4653C7.06741 34.3568 7.40039 34.1698 7.75956 34.2558C9.44316 34.9255 11.1417 35.5615 12.8253 36.2312C13.0835 36.3323 13.6784 36.3397 13.192 36.5867C11.7104 37.3387 9.76492 37.8213 8.20104 38.4536L8.31702 38.6257L29.9383 46.8978L30.3461 46.8305L51.668 38.622L51.7877 38.4499L46.6322 36.5156C48.4168 35.6177 50.381 35.0452 52.2255 34.2558C52.4462 34.1772 52.6295 34.2371 52.8428 34.2857C53.7744 34.499 58.0994 36.1826 58.9 36.6652C60.5088 37.6305 60.2731 39.9127 58.5446 40.5787C49.1089 44.1143 39.7556 47.923 30.2862 51.3425L29.2835 51.2827L1.29077 40.5001C0.594874 40.2233 0.310532 39.6695 0 39.0373V37.9822Z" fill="#112D93"/>
<path d="M51.7953 12.9077L30.0506 21.2284L8.20483 12.9077C8.33952 12.6533 8.73985 12.5747 8.99426 12.4699C15.9382 9.64521 23.073 7.15721 30.0543 4.46344C37.0057 7.19837 44.0844 9.65643 51.0021 12.4699C51.2603 12.5747 51.6569 12.6533 51.7915 12.9077H51.7953Z" fill="#FEFEFE"/>
</g>
<defs>
<clipPath id="clip0_1761_704">
<rect width="60" height="51.3463" fill="white"/>
</clipPath>
</defs>
</svg>
