<svg width="60" height="60" viewBox="0 0 60 60" fill="none" xmlns="http://www.w3.org/2000/svg">
<rect opacity="0.2" width="60" height="60" rx="30" fill="#94B8FC"/>
<path d="M26.3334 16.6665C26.5986 16.6665 26.8529 16.7719 27.0405 16.9594C27.228 17.1469 27.3334 17.4013 27.3334 17.6665V20.9998C27.3334 21.2651 27.228 21.5194 27.0405 21.7069C26.8529 21.8945 26.5986 21.9998 26.3334 21.9998C26.0682 21.9998 25.8138 21.8945 25.6263 21.7069C25.4387 21.5194 25.3334 21.2651 25.3334 20.9998V17.6665C25.3334 17.4013 25.4387 17.1469 25.6263 16.9594C25.8138 16.7719 26.0682 16.6665 26.3334 16.6665ZM19.96 19.2932C20.1475 19.1059 20.4017 19.0007 20.6667 19.0007C20.9317 19.0007 21.1859 19.1059 21.3734 19.2932L23.7067 21.6265C23.805 21.7181 23.8838 21.8285 23.9384 21.9511C23.9931 22.0738 24.0225 22.2062 24.0248 22.3405C24.0272 22.4747 24.0025 22.6081 23.9522 22.7326C23.9019 22.8572 23.8271 22.9703 23.7321 23.0652C23.6371 23.1602 23.524 23.235 23.3995 23.2853C23.275 23.3356 23.1416 23.3603 23.0073 23.358C22.8731 23.3556 22.7407 23.3262 22.618 23.2715C22.4953 23.2169 22.3849 23.1381 22.2934 23.0398L19.96 20.7065C19.7728 20.519 19.6676 20.2648 19.6676 19.9998C19.6676 19.7348 19.7728 19.4807 19.96 19.2932ZM32.7067 19.2932C32.894 19.4807 32.9992 19.7348 32.9992 19.9998C32.9992 20.2648 32.894 20.519 32.7067 20.7065L30.3734 23.0398C30.2818 23.1381 30.1714 23.2169 30.0488 23.2715C29.9261 23.3262 29.7937 23.3556 29.6594 23.358C29.5251 23.3603 29.3918 23.3356 29.2672 23.2853C29.1427 23.235 29.0296 23.1602 28.9347 23.0652C28.8397 22.9703 28.7648 22.8572 28.7145 22.7326C28.6642 22.6081 28.6395 22.4747 28.6419 22.3405C28.6443 22.2062 28.6737 22.0738 28.7283 21.9511C28.783 21.8285 28.8618 21.7181 28.96 21.6265L31.2934 19.2932C31.4809 19.1059 31.735 19.0007 32 19.0007C32.265 19.0007 32.5192 19.1059 32.7067 19.2932ZM17.3334 25.6665C17.3334 25.4013 17.4387 25.1469 17.6263 24.9594C17.8138 24.7719 18.0682 24.6665 18.3334 24.6665H21.6667C21.9319 24.6665 22.1863 24.7719 22.3738 24.9594C22.5614 25.1469 22.6667 25.4013 22.6667 25.6665C22.6667 25.9317 22.5614 26.1861 22.3738 26.3736C22.1863 26.5611 21.9319 26.6665 21.6667 26.6665H18.3334C18.0682 26.6665 17.8138 26.5611 17.6263 26.3736C17.4387 26.1861 17.3334 25.9317 17.3334 25.6665ZM25.3334 26.6492C25.3334 25.1465 27.096 24.3358 28.236 25.3145L39.5174 34.9838C40.7307 36.0238 40.04 38.0118 38.444 38.0772L33.324 38.2812C32.7734 38.3025 32.256 38.5478 31.888 38.9572L28.4027 42.8532C27.3267 44.0572 25.3334 43.2945 25.3334 41.6798V26.6492Z" fill="#001EB3"/>
<rect x="20.6439" y="18.5391" width="5.32264" height="2.01176" rx="1.00588" transform="rotate(45 20.6439 18.5391)" fill="#516EFC"/>
<rect x="27.3276" y="16.6899" width="5.32264" height="2.04898" rx="1.02449" transform="rotate(90.1473 27.3276 16.6899)" fill="#516EFC"/>
<rect x="33.4727" y="20.1021" width="5.32913" height="2.05396" rx="1.02698" transform="rotate(136.702 33.4727 20.1021)" fill="#516EFC"/>
<rect x="17.3334" y="24.7412" width="5.32264" height="2.01176" rx="1.00588" transform="rotate(-0.804717 17.3334 24.7412)" fill="#516EFC"/>
</svg>
