<svg width="40" height="32" viewBox="0 0 40 32" fill="none" xmlns="http://www.w3.org/2000/svg">
<rect x="0.5" y="0.5" width="39" height="31" rx="15.5" stroke="#B3B3B3"/>
<mask id="mask0_3034_5405" style="mask-type:alpha" maskUnits="userSpaceOnUse" x="12" y="8" width="16" height="16">
<rect x="12" y="8" width="16" height="16" fill="#D9D9D9"/>
</mask>
<g mask="url(#mask0_3034_5405)">
<path d="M16.6667 22C16.3001 22 15.9862 21.8694 15.7251 21.6083C15.464 21.3472 15.3334 21.0333 15.3334 20.6667V12H14.6667V10.6667H18.0001V10H22.0001V10.6667H25.3334V12H24.6667V20.6667C24.6667 21.0333 24.5362 21.3472 24.2751 21.6083C24.014 21.8694 23.7001 22 23.3334 22H16.6667ZM23.3334 12H16.6667V20.6667H23.3334V12ZM18.0001 19.3333H19.3334V13.3333H18.0001V19.3333ZM20.6667 19.3333H22.0001V13.3333H20.6667V19.3333Z" fill="#444444"/>
</g>
</svg>
