<svg width="24" height="25" viewBox="0 0 24 25" fill="none" xmlns="http://www.w3.org/2000/svg">
<g clip-path="url(#clip0_877_4700)">
<rect width="24" height="24" transform="translate(0 0.5)" fill="white"/>
<path fill-rule="evenodd" clip-rule="evenodd" d="M18.2549 15.1645L18.5172 13.2795C18.5979 12.6995 18.6717 12.1693 18.7373 11.6829C18.8721 10.6834 18.9395 10.1837 18.6406 9.84184C18.3418 9.5 17.8282 9.5 16.801 9.5H7.19905C6.17182 9.5 5.65821 9.5 5.35938 9.84184C5.06054 10.1837 5.12793 10.6834 5.26272 11.6829C5.32833 12.1695 5.40207 12.6993 5.48281 13.2795L5.74515 15.1645C6.03026 17.2132 6.17282 18.2376 6.47509 19.0603C7.04034 20.5988 8.01744 21.7447 9.18366 22.2368C9.8073 22.5 10.5382 22.5 12 22.5C13.4618 22.5 14.1927 22.5 14.8164 22.2368C15.9826 21.7447 16.9597 20.5988 17.5249 19.0603C17.8272 18.2376 17.9698 17.2132 18.2549 15.1645ZM10.75 11.5C10.75 11.0858 10.4142 10.75 10 10.75C9.58579 10.75 9.25 11.0858 9.25 11.5V19.5C9.25 19.9142 9.58579 20.25 10 20.25C10.4142 20.25 10.75 19.9142 10.75 19.5V11.5ZM14.75 11.5C14.75 11.0858 14.4142 10.75 14 10.75C13.5858 10.75 13.25 11.0858 13.25 11.5V19.5C13.25 19.9142 13.5858 20.25 14 20.25C14.4142 20.25 14.75 19.9142 14.75 19.5V11.5Z" fill="#4226C4"/>
<path d="M12 1.75C9.37665 1.75 7.25 3.87665 7.25 6.5V6.75H4C3.58579 6.75 3.25 7.08579 3.25 7.5C3.25 7.91421 3.58579 8.25 4 8.25H20C20.4142 8.25 20.75 7.91421 20.75 7.5C20.75 7.08579 20.4142 6.75 20 6.75H16.75V6.5C16.75 3.87665 14.6234 1.75 12 1.75Z" fill="#4226C4"/>
</g>
<defs>
<clipPath id="clip0_877_4700">
<rect width="24" height="24" fill="white" transform="translate(0 0.5)"/>
</clipPath>
</defs>
</svg>
