<svg width="60" height="60" viewBox="0 0 60 60" fill="none" xmlns="http://www.w3.org/2000/svg">
<rect opacity="0.1" width="60" height="60" rx="30" fill="#605BFF"/>
<path opacity="0.987" fill-rule="evenodd" clip-rule="evenodd" d="M38.5 19.0002C40.9586 18.9822 42.8127 20.0239 44.0625 22.1252C40.7852 24.5039 37.4727 26.8372 34.125 29.1252C30.1815 28.207 26.244 27.2799 22.3125 26.344C22.6175 24.15 23.7634 22.5667 25.75 21.594C29.8891 20.1474 34.1391 19.2829 38.5 19.0002Z" fill="#070566"/>
<path opacity="0.989" fill-rule="evenodd" clip-rule="evenodd" d="M46 30.0625C46 30.9792 46 31.8958 46 32.8125C45.5301 34.8444 44.3426 36.2924 42.4375 37.1562C37.9079 38.7793 33.2412 39.5918 28.4375 39.5938C26.6941 39.2069 25.3503 38.259 24.4062 36.75C23.1971 33.9972 22.5409 31.1222 22.4375 28.125C26.1637 28.9992 29.8929 29.8639 33.625 30.7188C34.0282 30.8517 34.4241 30.8308 34.8125 30.6562C38.0938 28.375 41.375 26.0938 44.6562 23.8125C45.0019 24.7249 45.2728 25.6624 45.4688 26.625C45.7016 27.7715 45.8787 28.9174 46 30.0625Z" fill="#070566"/>
<path opacity="0.956" fill-rule="evenodd" clip-rule="evenodd" d="M19.2501 26.4375C20.2484 26.4461 20.7171 26.9461 20.6563 27.9375C20.5789 28.2651 20.4018 28.5255 20.1251 28.7188C19.1073 28.9932 18.0761 29.2119 17.0313 29.375C16.1153 29.2506 15.7195 28.7297 15.8438 27.8125C15.9584 27.3646 16.2397 27.0833 16.6876 26.9688C17.5525 26.8021 18.4066 26.625 19.2501 26.4375Z" fill="#0400D0"/>
<path opacity="0.96" fill-rule="evenodd" clip-rule="evenodd" d="M14 34.3125C14 34.0417 14 33.7708 14 33.5C14.1611 33.0996 14.4528 32.8391 14.875 32.7188C16.1535 32.4631 17.4347 32.2234 18.7188 32C19.4578 32.0724 19.8641 32.4786 19.9375 33.2188C19.921 33.7522 19.671 34.1272 19.1875 34.3438C17.86 34.6322 16.5267 34.8926 15.1875 35.125C14.6269 35.085 14.231 34.8142 14 34.3125Z" fill="#0400D0"/>
<path opacity="0.96" fill-rule="evenodd" clip-rule="evenodd" d="M21.125 36.8751C22.0569 36.7453 22.5986 37.1411 22.75 38.0626C22.7373 38.5429 22.529 38.9075 22.125 39.1564C20.748 39.4776 19.3626 39.7589 17.9687 40.0001C17.0845 39.8867 16.6886 39.3867 16.7812 38.5001C16.8603 38.1714 17.0374 37.9109 17.3125 37.7189C18.5836 37.4086 19.8545 37.1273 21.125 36.8751Z" fill="#0400D0"/>
</svg>
