<svg width="18" height="19" viewBox="0 0 18 19" fill="none" xmlns="http://www.w3.org/2000/svg">
<mask id="mask0_877_4661" style="mask-type:alpha" maskUnits="userSpaceOnUse" x="-1" y="0" width="19" height="19">
<rect x="-0.000976562" y="0.5" width="18" height="18" fill="#D9D9D9"/>
</mask>
<g mask="url(#mask0_877_4661)">
<path d="M1.12402 18.5001V15.5001H16.124V18.5001H1.12402ZM2.62402 14.0001V10.8126L11.024 2.43131C11.1615 2.29381 11.3209 2.18756 11.5021 2.11256C11.6834 2.03756 11.874 2.00006 12.074 2.00006C12.274 2.00006 12.4678 2.03756 12.6553 2.11256C12.8428 2.18756 13.0115 2.30006 13.1615 2.45006L14.1928 3.50006C14.3428 3.63756 14.4521 3.80006 14.5209 3.98756C14.5896 4.17506 14.624 4.36881 14.624 4.56881C14.624 4.75631 14.5896 4.94069 14.5209 5.12194C14.4521 5.30319 14.3428 5.46881 14.1928 5.61881L5.81152 14.0001H2.62402ZM12.074 5.60006L13.124 4.55006L12.074 3.50006L11.024 4.55006L12.074 5.60006Z" fill="white"/>
</g>
</svg>
