<svg width="61" height="60" viewBox="0 0 61 60" fill="none" xmlns="http://www.w3.org/2000/svg">
<rect opacity="0.1" x="0.5" width="60" height="60" rx="30" fill="#FF1A1A"/>
<circle cx="37.6366" cy="23.9969" r="7.9969" fill="#FF8080"/>
<path opacity="0.988" fill-rule="evenodd" clip-rule="evenodd" d="M27.9028 17.4868C28.4797 17.462 29.0545 17.487 29.6271 17.5618C26.8529 21.114 26.5155 24.8876 28.615 28.8824C30.8955 32.3348 34.1068 33.8467 38.2488 33.4181C38.8364 33.2651 39.4112 33.0777 39.9731 32.8559C40.0355 34.4296 40.073 36.004 40.0855 37.579C41.7404 39.1062 42.0653 40.8805 41.0602 42.902C40.3916 43.9177 39.4545 44.53 38.2488 44.7387C36.5988 44.7513 34.9494 44.7888 33.3007 44.8512C32.4818 46.861 30.9824 47.9105 28.8024 48C26.6224 47.9105 25.123 46.861 24.3042 44.8512C22.6554 44.7888 21.006 44.7513 19.3561 44.7387C16.9466 44.152 15.8345 42.6151 16.0199 40.128C16.2114 39.095 16.7112 38.2454 17.5193 37.579C17.5232 34.1288 17.5732 30.6801 17.6692 27.233C18.465 22.6393 21.0515 19.5529 25.4287 17.9741C26.2516 17.747 27.0763 17.5846 27.9028 17.4868ZM19.8059 39.9781C25.8036 39.9656 31.8013 39.9781 37.7989 40.0156C38.1775 40.1231 38.3524 40.373 38.3237 40.7653C38.3015 41.2373 38.0517 41.4872 37.574 41.515C31.7263 41.565 25.8785 41.565 20.0308 41.515C19.4057 41.4136 19.1683 41.0513 19.3186 40.4279C19.4306 40.217 19.593 40.067 19.8059 39.9781Z" fill="#FF8080"/>
<path d="M40.3691 21.1548C40.4081 21.1623 40.4465 21.1729 40.4834 21.188C40.5571 21.2182 40.6243 21.2635 40.6807 21.3198C40.7368 21.376 40.7814 21.4426 40.8115 21.5161L40.8457 21.6304L40.8564 21.7485C40.8558 21.828 40.8389 21.9069 40.8076 21.98C40.7763 22.0528 40.7297 22.1182 40.6729 22.1733L40.6738 22.1743L38.8477 23.9995L40.6738 25.8257L40.6758 25.8267L40.748 25.9185C40.811 26.0161 40.8447 26.1307 40.8438 26.2485C40.8424 26.4058 40.7791 26.5563 40.668 26.6675C40.5567 26.7787 40.4063 26.8419 40.249 26.8433C40.0918 26.8446 39.9403 26.7845 39.8271 26.6753L39.8252 26.6743L37.999 24.8481L36.1738 26.6743L36.1729 26.6753C36.0597 26.7845 35.9082 26.8446 35.751 26.8433C35.5937 26.8419 35.4433 26.7787 35.332 26.6675C35.2208 26.5562 35.1576 26.4058 35.1562 26.2485C35.155 26.0914 35.215 25.9397 35.3242 25.8267L37.1514 23.9995L35.3252 22.1743C35.2128 22.0618 35.1504 21.9086 35.1504 21.7495C35.1505 21.5906 35.213 21.4381 35.3252 21.3257H35.3262L35.417 21.2505C35.5148 21.1853 35.6307 21.1499 35.75 21.1499C35.909 21.1499 36.0613 21.2133 36.1738 21.3257L37.999 23.1509L39.8252 21.3257C39.8804 21.2688 39.9467 21.2232 40.0195 21.1919L40.1328 21.1567C40.1716 21.1486 40.2112 21.1444 40.251 21.144L40.3691 21.1548Z" fill="#B70000" stroke="#B70000" stroke-width="0.2"/>
</svg>
