<svg width="25" height="24" viewBox="0 0 25 24" fill="none" xmlns="http://www.w3.org/2000/svg">
<mask id="mask0_410_217" style="mask-type:alpha" maskUnits="userSpaceOnUse" x="0" y="0" width="25" height="24">
<rect x="0.370361" width="24" height="24" fill="#D9D9D9"/>
</mask>
<g mask="url(#mask0_410_217)">
<path d="M8.77036 17L12.3704 13.4L15.9704 17L17.3704 15.6L13.7704 12L17.3704 8.4L15.9704 7L12.3704 10.6L8.77036 7L7.37036 8.4L10.9704 12L7.37036 15.6L8.77036 17ZM12.3704 22C10.987 22 9.68703 21.7375 8.47036 21.2125C7.25369 20.6875 6.19536 19.975 5.29536 19.075C4.39536 18.175 3.68286 17.1167 3.15786 15.9C2.63286 14.6833 2.37036 13.3833 2.37036 12C2.37036 10.6167 2.63286 9.31667 3.15786 8.1C3.68286 6.88333 4.39536 5.825 5.29536 4.925C6.19536 4.025 7.25369 3.3125 8.47036 2.7875C9.68703 2.2625 10.987 2 12.3704 2C13.7537 2 15.0537 2.2625 16.2704 2.7875C17.487 3.3125 18.5454 4.025 19.4454 4.925C20.3454 5.825 21.0579 6.88333 21.5829 8.1C22.1079 9.31667 22.3704 10.6167 22.3704 12C22.3704 13.3833 22.1079 14.6833 21.5829 15.9C21.0579 17.1167 20.3454 18.175 19.4454 19.075C18.5454 19.975 17.487 20.6875 16.2704 21.2125C15.0537 21.7375 13.7537 22 12.3704 22Z" fill="#FE3F3E"/>
</g>
</svg>
