<svg width="30" height="31" viewBox="0 0 30 31" fill="none" xmlns="http://www.w3.org/2000/svg">
<g clip-path="url(#clip0_2207_1028)">
<path d="M15.0073 0.727295C8.83885 0.727295 7.03481 0.733659 6.68414 0.762749C5.41827 0.867977 4.63057 1.06729 3.77241 1.49457C3.11107 1.82298 2.58949 2.20366 2.07473 2.73729C1.13726 3.71048 0.569099 4.90775 0.363423 6.33093C0.263426 7.02184 0.234336 7.16275 0.228427 10.6918C0.226154 11.8682 0.228427 13.4164 0.228427 15.493C0.228427 21.6566 0.235245 23.4589 0.26479 23.8089C0.367059 25.0407 0.560235 25.8157 0.969314 26.6634C1.75111 28.2862 3.24424 29.5043 5.00328 29.9589C5.61236 30.1157 6.28506 30.2021 7.14867 30.243C7.51457 30.2589 11.244 30.2702 14.9757 30.2702C18.7074 30.2702 22.4391 30.2657 22.7959 30.2475C23.7959 30.2005 24.3766 30.1225 25.0186 29.9566C26.789 29.4998 28.2549 28.2998 29.0526 26.6543C29.4537 25.8271 29.6571 25.0225 29.7491 23.855C29.7691 23.6005 29.7775 19.5421 29.7775 15.4891C29.7775 11.4355 29.7684 7.38457 29.7484 7.13002C29.6553 5.94366 29.4519 5.14593 29.0378 4.30275C28.698 3.61252 28.3208 3.09707 27.773 2.57002C26.7956 1.63639 25.6002 1.0682 24.1757 0.862749C23.4855 0.762977 23.348 0.733431 19.8162 0.727295H15.0073Z" fill="url(#paint0_radial_2207_1028)"/>
<path d="M15.0073 0.727295C8.83885 0.727295 7.03481 0.733659 6.68414 0.762749C5.41827 0.867977 4.63057 1.06729 3.77241 1.49457C3.11107 1.82298 2.58949 2.20366 2.07473 2.73729C1.13726 3.71048 0.569099 4.90775 0.363423 6.33093C0.263426 7.02184 0.234336 7.16275 0.228427 10.6918C0.226154 11.8682 0.228427 13.4164 0.228427 15.493C0.228427 21.6566 0.235245 23.4589 0.26479 23.8089C0.367059 25.0407 0.560235 25.8157 0.969314 26.6634C1.75111 28.2862 3.24424 29.5043 5.00328 29.9589C5.61236 30.1157 6.28506 30.2021 7.14867 30.243C7.51457 30.2589 11.244 30.2702 14.9757 30.2702C18.7074 30.2702 22.4391 30.2657 22.7959 30.2475C23.7959 30.2005 24.3766 30.1225 25.0186 29.9566C26.789 29.4998 28.2549 28.2998 29.0526 26.6543C29.4537 25.8271 29.6571 25.0225 29.7491 23.855C29.7691 23.6005 29.7775 19.5421 29.7775 15.4891C29.7775 11.4355 29.7684 7.38457 29.7484 7.13002C29.6553 5.94366 29.4519 5.14593 29.0378 4.30275C28.698 3.61252 28.3208 3.09707 27.773 2.57002C26.7956 1.63639 25.6002 1.0682 24.1757 0.862749C23.4855 0.762977 23.348 0.733431 19.8162 0.727295H15.0073Z" fill="url(#paint1_radial_2207_1028)"/>
<path d="M15.0005 4.59094C12.0379 4.59094 11.666 4.6039 10.5024 4.65685C9.34112 4.71003 8.54841 4.8939 7.8548 5.16367C7.13732 5.44231 6.5287 5.81503 5.92236 6.42162C5.31556 7.02799 4.94284 7.63662 4.6633 8.3539C4.39286 9.04776 4.20877 9.84072 4.1565 11.0016C4.10446 12.1653 4.09082 12.5373 4.09082 15.5C4.09082 18.4628 4.104 18.8334 4.15673 19.9971C4.21014 21.1584 4.39399 21.9512 4.66353 22.6448C4.94239 23.3623 5.3151 23.9709 5.92167 24.5773C6.52779 25.1841 7.13641 25.5578 7.85343 25.8364C8.5475 26.1062 9.34043 26.29 10.5015 26.3432C11.6651 26.3962 12.0367 26.4091 14.9991 26.4091C17.962 26.4091 18.3327 26.3962 19.4963 26.3432C20.6576 26.29 21.4512 26.1062 22.1453 25.8364C22.8625 25.5578 23.4702 25.1841 24.0764 24.5773C24.6832 23.9709 25.0559 23.3623 25.3354 22.645C25.6036 21.9512 25.7877 21.1582 25.8422 19.9973C25.8945 18.8337 25.9081 18.4628 25.9081 15.5C25.9081 12.5373 25.8945 12.1655 25.8422 11.0019C25.7877 9.84049 25.6036 9.04776 25.3354 8.35412C25.0559 7.63662 24.6832 7.02799 24.0764 6.42162C23.4696 5.81481 22.8628 5.44208 22.1446 5.16367C21.4492 4.8939 20.656 4.71003 19.4947 4.65685C18.3311 4.6039 17.9606 4.59094 14.9971 4.59094H15.0005ZM14.0219 6.55685C14.3123 6.5564 14.6364 6.55685 15.0005 6.55685C17.9131 6.55685 18.2583 6.56731 19.4085 6.61958C20.4721 6.66822 21.0494 6.84594 21.4339 6.99526C21.943 7.19299 22.306 7.42935 22.6875 7.81117C23.0693 8.19299 23.3057 8.55662 23.5039 9.06571C23.6532 9.44981 23.8311 10.0271 23.8795 11.0907C23.9318 12.2407 23.9432 12.5862 23.9432 15.4975C23.9432 18.4089 23.9318 18.7544 23.8795 19.9044C23.8309 20.968 23.6532 21.5453 23.5039 21.9294C23.3061 22.4384 23.0693 22.8009 22.6875 23.1825C22.3057 23.5644 21.9432 23.8007 21.4339 23.9984C21.0499 24.1484 20.4721 24.3257 19.4085 24.3744C18.2586 24.4266 17.9131 24.438 15.0005 24.438C12.0876 24.438 11.7424 24.4266 10.5924 24.3744C9.52884 24.3253 8.95158 24.1475 8.56682 23.9982C8.05775 23.8005 7.69412 23.5641 7.31231 23.1823C6.93051 22.8005 6.69415 22.4378 6.49597 21.9284C6.34666 21.5444 6.16871 20.9671 6.1203 19.9034C6.06803 18.7534 6.05758 18.408 6.05758 15.4948C6.05758 12.5816 6.06803 12.238 6.1203 11.088C6.16894 10.0244 6.34666 9.44708 6.49597 9.06253C6.6937 8.55344 6.93051 8.18981 7.31231 7.80799C7.69412 7.42617 8.05775 7.18981 8.56682 6.99162C8.95135 6.84162 9.52884 6.66435 10.5924 6.61549C11.5988 6.57003 11.9888 6.5564 14.0219 6.55412V6.55685ZM20.8235 8.36822C20.1008 8.36822 19.5144 8.9539 19.5144 9.67685C19.5144 10.3996 20.1008 10.9859 20.8235 10.9859C21.5462 10.9859 22.1325 10.3996 22.1325 9.67685C22.1325 8.95412 21.5462 8.36776 20.8235 8.36776V8.36822ZM15.0005 9.89776C11.9067 9.89776 9.39839 12.4062 9.39839 15.5C9.39839 18.5939 11.9067 21.1012 15.0005 21.1012C18.0943 21.1012 20.6017 18.5939 20.6017 15.5C20.6017 12.4062 18.0943 9.89776 15.0005 9.89776ZM15.0005 11.8637C17.0086 11.8637 18.6367 13.4916 18.6367 15.5C18.6367 17.5082 17.0086 19.1364 15.0005 19.1364C12.9921 19.1364 11.3642 17.5082 11.3642 15.5C11.3642 13.4916 12.9921 11.8637 15.0005 11.8637Z" fill="white"/>
</g>
<defs>
<radialGradient id="paint0_radial_2207_1028" cx="0" cy="0" r="1" gradientUnits="userSpaceOnUse" gradientTransform="translate(8.0767 32.5457) rotate(-90) scale(29.2792 27.2386)">
<stop stop-color="#FFDD55"/>
<stop offset="0.1" stop-color="#FFDD55"/>
<stop offset="0.5" stop-color="#FF543E"/>
<stop offset="1" stop-color="#C837AB"/>
</radialGradient>
<radialGradient id="paint1_radial_2207_1028" cx="0" cy="0" r="1" gradientUnits="userSpaceOnUse" gradientTransform="translate(-4.72238 2.85552) rotate(78.678) scale(13.0881 53.9616)">
<stop stop-color="#3771C8"/>
<stop offset="0.128" stop-color="#3771C8"/>
<stop offset="1" stop-color="#6600FF" stop-opacity="0"/>
</radialGradient>
<clipPath id="clip0_2207_1028">
<rect width="30" height="30" fill="white" transform="translate(0 0.5)"/>
</clipPath>
</defs>
</svg>
