<svg width="20" height="20" viewBox="0 0 20 20" fill="none" xmlns="http://www.w3.org/2000/svg">
<mask id="mask0_3034_5047" style="mask-type:alpha" maskUnits="userSpaceOnUse" x="0" y="0" width="20" height="20">
<rect width="20" height="20" fill="#D9D9D9"/>
</mask>
<g mask="url(#mask0_3034_5047)">
<path d="M3.33335 16.6667C2.87502 16.6667 2.48266 16.5035 2.15627 16.1771C1.82988 15.8507 1.66669 15.4583 1.66669 15V5.00001C1.66669 4.54168 1.82988 4.14932 2.15627 3.82293C2.48266 3.49654 2.87502 3.33334 3.33335 3.33334H16.6667C17.125 3.33334 17.5174 3.49654 17.8438 3.82293C18.1702 4.14932 18.3334 4.54168 18.3334 5.00001V15C18.3334 15.4583 18.1702 15.8507 17.8438 16.1771C17.5174 16.5035 17.125 16.6667 16.6667 16.6667H3.33335ZM10 10.8333L16.6667 6.66668V5.00001L10 9.16668L3.33335 5.00001V6.66668L10 10.8333Z" fill="#444444"/>
</g>
</svg>
