<svg width="20" height="21" viewBox="0 0 20 21" fill="none" xmlns="http://www.w3.org/2000/svg">
<path d="M9.167 11.3334H5.00033C4.76422 11.3334 4.56644 11.2534 4.407 11.0934C4.24755 10.9334 4.16755 10.7356 4.167 10.5C4.16644 10.2645 4.24644 10.0667 4.407 9.90669C4.56755 9.74669 4.76533 9.66669 5.00033 9.66669H9.167V5.50002C9.167 5.26391 9.24699 5.06613 9.40699 4.90669C9.567 4.74725 9.76477 4.66725 10.0003 4.66669C10.2359 4.66613 10.4339 4.74613 10.5945 4.90669C10.7551 5.06725 10.8348 5.26502 10.8337 5.50002V9.66669H15.0003C15.2364 9.66669 15.4345 9.74669 15.5945 9.90669C15.7545 10.0667 15.8342 10.2645 15.8337 10.5C15.8331 10.7356 15.7531 10.9336 15.5937 11.0942C15.4342 11.2547 15.2364 11.3345 15.0003 11.3334H10.8337V15.5C10.8337 15.7361 10.7537 15.9342 10.5937 16.0942C10.4337 16.2542 10.2359 16.3339 10.0003 16.3334C9.76477 16.3328 9.567 16.2528 9.40699 16.0934C9.24699 15.9339 9.167 15.7361 9.167 15.5V11.3334Z" fill="white"/>
</svg>
