<svg width="60" height="60" viewBox="0 0 60 60" fill="none" xmlns="http://www.w3.org/2000/svg">
<g clip-path="url(#clip0_1755_561)">
<path d="M32.3437 60C32.2577 59.8308 32.0717 59.87 31.9342 59.8152C30.7354 59.3297 30.0085 58.3054 30.0023 57.0117C29.9913 54.6484 29.9992 52.2866 29.9992 49.9232C29.9992 41.859 29.9992 33.7933 29.9992 25.729C29.9992 23.621 31.1949 22.415 33.2878 22.4135C38.4817 22.4135 43.6772 22.4213 48.8712 22.3994C49.3823 22.3978 49.4651 22.5544 49.462 23.0196C49.4386 25.6758 49.4495 28.3305 49.4511 30.9867C49.4511 32.2537 50.1341 32.9569 51.3892 32.9554C54.2589 32.9554 57.1287 32.9381 59.9984 32.9287V57.6554C59.7405 59.0274 58.9386 59.8277 57.5382 59.9984H32.3421L32.3437 60Z" fill="#112D93"/>
<path d="M-4.77699e-05 22.2647C0.300054 21.4628 0.278171 20.603 0.440726 19.776C0.556391 19.1887 0.778341 18.8598 1.36604 18.6218C4.55462 17.325 7.86042 16.4683 11.2366 15.8449C11.6633 15.7666 11.6617 15.9201 11.6289 16.2616C11.2131 20.5998 11.1193 24.946 11.371 29.2984C11.4382 30.4667 11.5351 31.6335 11.6383 32.7987C11.6633 33.0775 11.6523 33.1778 11.321 33.1167C7.76821 32.4746 4.29047 31.5803 0.965904 30.1425C0.723635 30.0376 0.607971 29.9217 0.550138 29.657C0.361012 28.78 0.234407 27.8935 0.121868 27.0039C0.107801 26.8974 0.156255 26.7612 -0.00317383 26.7157V26.2475C0.092171 26.1519 0.0452801 26.0298 0.0577843 25.9201C0.0530952 25.8309 0.0765407 25.7338 -0.00317383 25.6617V23.3187C0.0687255 23.2545 0.0546583 23.1668 0.0577843 23.0838C0.0546583 23.0008 0.0687255 22.9146 -0.00317383 22.8489V22.2631L-4.77699e-05 22.2647Z" fill="#112D93"/>
<path d="M0.0937818 25.9091C0.0906557 26.0313 0.193816 26.1817 0 26.2506V25.8997C0.0375127 25.8449 0.0687733 25.8481 0.0937818 25.9107V25.9091Z" fill="#727272"/>
<path d="M0 22.852C0.128168 22.8864 0.109412 22.9835 0.0984708 23.0791C0.0703363 23.137 0.0375127 23.1417 0 23.0869V22.852Z" fill="#646464"/>
<path d="M0 23.0854C0.0328236 23.0822 0.0656472 23.0807 0.0984708 23.0791C0.117227 23.1809 0.109412 23.2717 0 23.3203V23.0854Z" fill="#484848"/>
<path d="M0.0937818 25.9092C0.0625212 25.9092 0.0296976 25.906 0 25.8982V25.6633C0.114101 25.7134 0.11879 25.8042 0.0937818 25.9076V25.9092Z" fill="#4C4C4C"/>
<path d="M14.7565 24.4652C14.7425 21.5145 14.9144 18.5732 15.2239 15.6398C15.2551 15.3485 15.3395 15.2577 15.6365 15.2248C20.2865 14.7126 24.9475 14.6343 29.6131 14.9021C30.8589 14.9742 32.0999 15.1277 33.3456 15.2263C33.6129 15.2467 33.7208 15.3375 33.7411 15.6054C33.8114 16.5388 33.8818 17.4738 33.9927 18.4041C34.0443 18.8395 33.8896 18.9194 33.4926 18.9037C31.7107 18.8332 30.0945 19.3 28.7331 20.4949C27.2576 21.7886 26.5043 23.4299 26.4902 25.3877C26.4714 28.141 26.4761 30.8943 26.4949 33.6476C26.498 34.0564 26.4371 34.2068 25.9681 34.2115C22.5279 34.2506 19.0986 34.0815 15.6772 33.7416C15.3724 33.7119 15.2567 33.621 15.2223 33.2921C14.916 30.3571 14.744 27.4174 14.7581 24.4652H14.7565Z" fill="#112D93"/>
<path d="M32.9096 11.6508C29.5522 11.3109 26.2386 11.2013 22.9171 11.2467C20.6914 11.278 18.4734 11.4362 16.2571 11.632C15.8991 11.6633 15.7678 11.6382 15.8429 11.231C16.4868 7.75726 17.3621 4.35397 18.7454 1.09163C18.8939 0.743944 19.083 0.584195 19.4425 0.512151C22.814 -0.169133 26.1807 -0.173832 29.5522 0.523114C29.9023 0.595158 30.068 0.759606 30.2008 1.07754C31.5872 4.35867 32.4922 7.77449 33.1128 11.2733C33.1503 11.4863 33.2534 11.7353 32.908 11.6523L32.9096 11.6508Z" fill="#112D93"/>
<path d="M26.484 43.2983C26.484 44.9961 26.4746 46.6922 26.4918 48.3884C26.4949 48.7439 26.4277 48.8739 26.0322 48.9005C23.7784 49.0572 21.5557 48.8614 19.3472 48.4119C19.0643 48.3539 18.9126 48.2412 18.8001 47.9781C17.3793 44.6703 16.4868 41.2122 15.8382 37.6821C15.7694 37.3109 15.8913 37.2702 16.2274 37.3046C19.4503 37.6366 22.6842 37.7713 25.9228 37.704C26.3745 37.6946 26.5058 37.7995 26.4965 38.2647C26.4652 39.942 26.484 41.6194 26.484 43.2968V43.2983Z" fill="#112D93"/>
<path d="M46.8659 14.5435C45.6061 14.1707 44.4432 13.8058 43.2694 13.4816C41.2765 12.9335 39.2493 12.5341 37.2095 12.2068C36.9454 12.1645 36.8109 12.1144 36.7625 11.809C36.2451 8.57325 35.5136 5.38766 34.443 2.28507C34.432 2.25375 34.4492 2.21303 34.4602 2.11279C40.1105 4.73143 44.2072 8.84889 46.8643 14.5435H46.8659Z" fill="#112D93"/>
<path d="M14.5752 46.8301C8.94673 44.4182 4.20919 39.4377 2.16943 34.4197C3.04786 34.6876 3.89658 34.9569 4.74999 35.206C6.97887 35.8543 9.24214 36.3508 11.5382 36.6938C11.9696 36.758 12.1744 36.8943 12.251 37.3892C12.7418 40.567 13.4764 43.6899 14.5736 46.8316L14.5752 46.8301Z" fill="#112D93"/>
<path d="M14.5814 2.08459C14.1094 3.48475 13.7061 4.78154 13.3701 6.09556C12.8902 7.96557 12.5104 9.85593 12.2072 11.762C12.165 12.0282 12.1025 12.1598 11.8024 12.2083C8.58723 12.7236 5.41428 13.4237 2.33824 14.5122C2.28822 14.5294 2.22726 14.5137 2.11316 14.5137C4.74686 8.85672 8.85294 4.74865 14.5814 2.08459Z" fill="#112D93"/>
<path d="M59.8734 29.3015C59.8265 29.4597 59.6905 29.4174 59.5842 29.4174C57.3819 29.4143 55.178 29.408 52.9757 29.4017V22.4432C55.3171 24.7706 57.5945 27.0352 59.8734 29.3015Z" fill="#112D93"/>
<path d="M47.9068 18.8959C44.5682 18.8959 41.2311 18.8959 37.8925 18.8974C37.6737 18.8974 37.5268 18.8771 37.508 18.5952C37.4549 17.7573 37.383 16.9209 37.3001 16.0861C37.2579 15.6633 37.5424 15.8183 37.7128 15.8497C39.9166 16.2569 42.1017 16.7392 44.2415 17.419C45.4966 17.8168 46.7283 18.2694 47.9068 18.8959Z" fill="#112D93"/>
<path d="M44.9996 46.1676C47.9882 46.1676 50.9767 46.166 53.9636 46.1676C54.7451 46.1676 55.3172 46.5372 55.6282 47.242C55.9346 47.9342 55.7814 48.5857 55.2734 49.1355C54.878 49.563 54.3622 49.6868 53.7886 49.6868C48.3977 49.6789 43.0083 49.6821 37.6175 49.6821C37.0907 49.6821 36.5624 49.6899 36.0357 49.6805C35.0072 49.6601 34.2257 48.8958 34.2241 47.9232C34.2241 46.9475 35.0009 46.1738 36.0341 46.1707C39.0226 46.1597 42.0111 46.1676 44.9981 46.1676H44.9996Z" fill="#FEFEFE"/>
<path d="M43.8726 43.823C41.2749 43.823 38.6771 43.8309 36.0794 43.8199C34.6664 43.8136 33.802 42.4667 34.4304 41.267C34.7945 40.5732 35.3963 40.3023 36.1669 40.3038C40.0729 40.3117 43.9789 40.307 47.8849 40.307C49.0963 40.307 50.306 40.3023 51.5174 40.307C52.6475 40.3132 53.4415 41.0525 53.4305 42.0767C53.4212 43.0979 52.624 43.8183 51.4893 43.8199C48.9509 43.823 46.411 43.8199 43.8726 43.8199V43.823Z" fill="#FEFEFE"/>
<path d="M43.2193 55.5427C40.8169 55.5427 38.4145 55.5505 36.0122 55.538C35.0853 55.5333 34.3538 54.8755 34.2334 53.9937C34.1193 53.1558 34.6805 52.3304 35.5386 52.0924C35.7043 52.047 35.884 52.0297 36.0575 52.0297C40.8419 52.0266 45.6279 52.0219 50.4124 52.0297C51.7472 52.0329 52.6006 53.2498 52.1286 54.4322C51.8519 55.1276 51.2095 55.538 50.3655 55.5395C47.9834 55.5442 45.5998 55.5395 43.2177 55.5395L43.2193 55.5427Z" fill="#FEFEFE"/>
</g>
<defs>
<clipPath id="clip0_1755_561">
<rect width="60" height="60" fill="white"/>
</clipPath>
</defs>
</svg>
