<svg width="24" height="23" viewBox="0 0 24 23" fill="none" xmlns="http://www.w3.org/2000/svg">
<path d="M9.05273 0.432617C10.5568 0.232538 12.0869 0.39777 13.5137 0.914062C14.9405 1.43045 16.2222 2.283 17.25 3.39941C18.2778 4.51584 19.0221 5.86344 19.4189 7.32812C19.8157 8.79258 19.8537 10.3311 19.5303 11.8135C19.2165 13.2514 18.5699 14.5947 17.6455 15.7383L22.8369 20.9297H22.8359C22.9321 21.0201 23.0097 21.1284 23.0635 21.249C23.1178 21.371 23.147 21.5032 23.1494 21.6367C23.1518 21.7704 23.1272 21.9034 23.0771 22.0273C23.0271 22.1513 22.9529 22.2639 22.8584 22.3584C22.7639 22.4529 22.6513 22.5271 22.5273 22.5771C22.4034 22.6272 22.2704 22.6518 22.1367 22.6494C22.0033 22.647 21.8719 22.6178 21.75 22.5635C21.6292 22.5096 21.5202 22.4323 21.4297 22.3359V22.3369L16.2383 17.1455C14.879 18.2446 13.2414 18.9473 11.5059 19.1709C9.72493 19.4003 7.91505 19.1174 6.28906 18.3555C4.66317 17.5935 3.28849 16.3836 2.3252 14.8682C1.36182 13.3526 0.849412 11.5937 0.849609 9.79785C0.849841 8.28052 1.21596 6.78562 1.91602 5.43945C2.6162 4.09316 3.63079 2.93494 4.87305 2.06348C6.11519 1.19217 7.54875 0.632713 9.05273 0.432617ZM10.2988 2.33984C9.31942 2.33984 8.34919 2.5324 7.44434 2.90723C6.53959 3.28205 5.71787 3.8319 5.02539 4.52441C4.33293 5.21692 3.783 6.03858 3.4082 6.94336C3.03343 7.8482 2.84085 8.81846 2.84082 9.79785C2.84082 10.7773 3.03341 11.7474 3.4082 12.6523C3.78301 13.5573 4.33284 14.3797 5.02539 15.0723C5.71778 15.7646 6.53976 16.3137 7.44434 16.6885C8.34919 17.0633 9.31942 17.2568 10.2988 17.2568C12.2767 17.2568 14.1736 16.4709 15.5723 15.0723C16.9709 13.6735 17.7568 11.776 17.7568 9.79785C17.7568 7.81984 16.9708 5.9231 15.5723 4.52441C14.1736 3.12569 12.2768 2.33986 10.2988 2.33984Z" fill="#5E5E5E" stroke="#5E5E5E" stroke-width="0.3"/>
</svg>
