<svg width="24" height="24" viewBox="0 0 24 24" fill="none" xmlns="http://www.w3.org/2000/svg">
<path opacity="0.986" fill-rule="evenodd" clip-rule="evenodd" d="M3.44537 2.92969C8.0079 2.92187 12.5704 2.92969 17.1329 2.95313C18.2651 3.1322 18.9604 3.78064 19.2188 4.89844C19.2501 7.58592 19.2501 10.2735 19.2188 12.9609C18.9826 14.0409 18.3185 14.6738 17.2266 14.8594C13.836 14.875 10.4454 14.8906 7.05474 14.9063C5.99499 15.8722 4.96374 16.8722 3.96099 17.9062C3.67562 18.0501 3.51937 17.9642 3.49224 17.6484C3.64549 16.7762 3.76267 15.9013 3.8438 15.0234C3.82037 14.9687 3.78131 14.9297 3.72662 14.9063C2.27786 14.8012 1.47317 14.0278 1.31255 12.5859C1.26769 9.99122 1.28331 7.39749 1.35943 4.80469C1.65558 3.73151 2.35089 3.10651 3.44537 2.92969ZM4.71099 7.14844C4.83024 7.12988 4.93182 7.16114 5.01568 7.24219C5.16184 7.55808 5.3259 7.86277 5.50787 8.15625C5.84701 8.23599 6.19079 8.29852 6.53912 8.34375C6.66005 8.41317 6.6991 8.51475 6.6563 8.64844C6.36249 8.9107 6.10468 9.19974 5.88287 9.51563C5.95018 9.82547 6.01266 10.1379 6.07037 10.4531C6.04969 10.5807 5.97938 10.6667 5.85943 10.7109C5.53318 10.5165 5.1894 10.3603 4.82818 10.2422C4.51947 10.3301 4.23042 10.4629 3.96099 10.6406C3.77676 10.7072 3.65177 10.6525 3.58599 10.4766C3.67651 10.1367 3.7312 9.79289 3.75005 9.44531C3.51722 9.16552 3.26722 8.89992 3.00005 8.64844C2.95692 8.51681 2.99599 8.41524 3.11724 8.34375C3.48044 8.30034 3.83981 8.23781 4.19537 8.15625C4.37384 7.82274 4.54572 7.48678 4.71099 7.14844ZM10.1954 7.14844C10.2995 7.13334 10.3855 7.16461 10.4532 7.24219C10.5993 7.55808 10.7634 7.86277 10.9454 8.15625C11.3336 8.22497 11.7164 8.31094 12.0938 8.41406C12.1251 8.4922 12.1251 8.5703 12.0938 8.64844C11.8594 8.88281 11.6251 9.11719 11.3907 9.35156C11.3783 9.71522 11.4174 10.0746 11.5079 10.4297C11.5014 10.5692 11.4311 10.663 11.2969 10.7109C10.9692 10.5158 10.6255 10.3595 10.2657 10.2422C9.92832 10.3718 9.60019 10.528 9.2813 10.7109C9.13599 10.6597 9.06568 10.5581 9.07037 10.4063C9.13791 10.0718 9.17701 9.7358 9.18755 9.39844C8.90382 9.13828 8.64601 8.85703 8.41412 8.55469C8.43905 8.44964 8.50154 8.37933 8.60162 8.34375C8.94901 8.29861 9.29274 8.23613 9.63287 8.15625C9.80382 7.80605 9.99132 7.47009 10.1954 7.14844ZM15.6329 7.14844C15.7653 7.1288 15.8668 7.17567 15.9376 7.28906C16.08 7.5818 16.2285 7.87088 16.3829 8.15625C16.7232 8.22863 17.067 8.29111 17.4141 8.34375C17.5142 8.37933 17.5767 8.44964 17.6016 8.55469C17.3378 8.82647 17.08 9.10772 16.8282 9.39844C16.8387 9.7358 16.8778 10.0718 16.9454 10.4063C16.9413 10.6289 16.8319 10.707 16.6172 10.6406C16.3337 10.487 16.0447 10.3542 15.7501 10.2422C15.3902 10.3595 15.0465 10.5158 14.7188 10.7109C14.6479 10.6755 14.5854 10.6286 14.5313 10.5703C14.5676 10.1803 14.5989 9.78966 14.6251 9.39844C14.4376 9.14845 14.2188 8.92969 13.9688 8.74219C13.8048 8.57752 13.8283 8.44472 14.0391 8.34375C14.3874 8.29852 14.7312 8.23599 15.0704 8.15625C15.2644 7.82283 15.4519 7.48688 15.6329 7.14844Z" fill="#0E082B"/>
<path opacity="0.973" fill-rule="evenodd" clip-rule="evenodd" d="M20.1328 5.97656C21.6572 6.02442 22.4931 6.80569 22.6406 8.32031C22.6855 10.8994 22.6699 13.4775 22.5937 16.0547C22.2503 17.2628 21.4456 17.8956 20.1797 17.9531C20.0857 18.0863 20.0623 18.2347 20.1094 18.3984C20.2291 19.1715 20.3463 19.9449 20.4609 20.7188C20.4088 20.9948 20.2525 21.073 19.9922 20.9531C18.9909 19.9362 17.9752 18.9361 16.9453 17.9531C13.5547 17.9375 10.164 17.9219 6.77344 17.9062C6.35142 17.8725 5.97642 17.724 5.64844 17.4609C6.20245 16.8835 6.76495 16.3132 7.33594 15.75C10.6953 15.7344 14.0547 15.7187 17.4141 15.7031C18.8387 15.3878 19.7215 14.5207 20.0625 13.1016C20.1308 10.7277 20.1543 8.35266 20.1328 5.97656Z" fill="#0E082B"/>
</svg>
