<svg width="61" height="60" viewBox="0 0 61 60" fill="none" xmlns="http://www.w3.org/2000/svg">
<rect opacity="0.1" x="0.5" width="60" height="60" rx="30" fill="#00C4C4"/>
<path d="M22.8001 18.6666C22.967 18.4677 23.05 18.2116 23.0315 17.9526C23.013 17.6936 22.8945 17.452 22.7011 17.2788C22.5076 17.1056 22.2544 17.0144 21.9949 17.0246C21.7354 17.0348 21.4901 17.1455 21.3108 17.3333C19.6727 19.1603 18.5871 21.4148 18.1801 23.8346C18.1425 24.0933 18.2076 24.3565 18.3617 24.5678C18.5158 24.7791 18.7464 24.9216 19.0043 24.9648C19.2622 25.0081 19.5267 24.9486 19.7413 24.7991C19.9558 24.6497 20.1033 24.4221 20.1521 24.1653C20.4963 22.1186 21.4146 20.2118 22.8001 18.6666ZM40.6894 17.3333C40.6021 17.2345 40.4962 17.154 40.3776 17.0963C40.2591 17.0387 40.1303 17.005 39.9988 16.9973C39.8672 16.9896 39.7354 17.008 39.6109 17.0514C39.4864 17.0948 39.3718 17.1624 39.2735 17.2503C39.1753 17.3381 39.0954 17.4446 39.0384 17.5634C38.9815 17.6823 38.9486 17.8113 38.9416 17.9429C38.9347 18.0745 38.9538 18.2062 38.9979 18.3304C39.0421 18.4546 39.1103 18.5689 39.1988 18.6666C40.5847 20.2117 41.5035 22.1185 41.8481 24.1653C41.892 24.427 42.038 24.6605 42.254 24.8145C42.361 24.8908 42.4819 24.9452 42.6099 24.9748C42.738 25.0043 42.8705 25.0083 43.0001 24.9866C43.1297 24.9649 43.2537 24.9179 43.3651 24.8482C43.4765 24.7786 43.5731 24.6877 43.6494 24.5807C43.7256 24.4737 43.7801 24.3528 43.8096 24.2248C43.8391 24.0968 43.8431 23.9642 43.8214 23.8346C43.4136 21.4145 42.3284 19.16 40.6894 17.3333Z" fill="#006C93"/>
<path fill-rule="evenodd" clip-rule="evenodd" d="M31.0001 17C28.6131 17 26.3239 17.9482 24.6361 19.636C22.9483 21.3239 22.0001 23.6131 22.0001 26V27C22.0042 29.7189 20.9971 32.3422 19.1747 34.36C19.0653 34.4814 18.9873 34.6278 18.9475 34.7863C18.9078 34.9449 18.9075 35.1108 18.9467 35.2694C18.9859 35.4281 19.0634 35.5748 19.1724 35.6966C19.2814 35.8183 19.4187 35.9115 19.5721 35.968C21.6307 36.728 23.7854 37.288 26.0134 37.6253C25.9632 38.3109 26.0549 38.9994 26.2828 39.6478C26.5107 40.2963 26.8698 40.8909 27.3378 41.3943C27.8057 41.8978 28.3725 42.2993 29.0026 42.5739C29.6327 42.8485 30.3127 42.9902 31.0001 42.9902C31.6874 42.9902 32.3674 42.8485 32.9975 42.5739C33.6276 42.2993 34.1944 41.8978 34.6623 41.3943C35.1303 40.8909 35.4894 40.2963 35.7173 39.6478C35.9452 38.9994 36.0369 38.3109 35.9867 37.6253C38.1841 37.2922 40.3418 36.7365 42.4267 35.9667C42.5799 35.9101 42.7169 35.8169 42.8257 35.6953C42.9345 35.5736 43.0119 35.4271 43.0511 35.2686C43.0903 35.1101 43.0901 34.9445 43.0505 34.7861C43.011 34.6277 42.9332 34.4814 42.824 34.36C41.0021 32.342 39.9956 29.7187 40 27V26C40 23.6131 39.0518 21.3239 37.364 19.636C35.6762 17.9482 33.387 17 31.0001 17ZM28.0001 38C28.0001 37.9547 28.0001 37.9107 28.0027 37.8667C29.9969 38.0464 32.0032 38.0464 33.9974 37.8667L34 38C34 38.7957 33.684 39.5587 33.1214 40.1213C32.5588 40.6839 31.7957 41 31.0001 41C30.2044 41 29.4413 40.6839 28.8787 40.1213C28.3161 39.5587 28.0001 38.7957 28.0001 38Z" fill="#00A1B3"/>
</svg>
