<svg width="60" height="44" viewBox="0 0 60 44" fill="none" xmlns="http://www.w3.org/2000/svg">
<g clip-path="url(#clip0_1761_693)">
<path d="M13.9999 8.69162L54.299 8.65424C57.3364 9.08414 59.5794 11.5234 59.8224 14.5795C59.3831 21.8879 60.3925 29.8505 59.8224 37.0841C59.5607 40.4393 56.9719 42.9253 53.6355 43.1402H14.8878C11.4485 42.8412 8.99059 40.4019 8.71021 36.944C8.13078 29.8131 9.14012 21.9253 8.71021 14.7197C8.95321 11.7103 11.0093 9.26171 13.9999 8.70096V8.69162Z" fill="#112D93"/>
<path d="M51.0279 4.79439H13.7008C9.9625 4.79439 5.13073 9.75701 4.99989 13.5234C4.62605 20.4019 5.02792 27.3178 4.78493 34.2056C2.19615 33.5327 0.401754 31.1869 0.186801 28.5514C0.644745 21.2243 -0.41133 13.1682 0.186801 5.92523C0.467175 2.64486 3.12138 0.205607 6.37372 0H45.1027C47.9625 0.224299 50.2429 2.03738 51.0279 4.79439Z" fill="#112D93"/>
<path d="M32.7289 19.3739C33.2523 19.3739 33.5514 19.5327 33.9813 19.7757C35.243 20.4767 38.8785 23 39.9159 23.9533C41.1215 25.0654 41 26.757 39.7757 27.8131C38.5514 28.8692 35.542 31 34.1682 31.7851C32.3458 32.8224 30.785 32.2524 30.1682 30.243C30.2617 27.5327 29.9346 24.5701 30.1308 21.8879C30.243 20.3739 31.1589 19.3458 32.7289 19.3739Z" fill="#FEFEFE"/>
</g>
<defs>
<clipPath id="clip0_1761_693">
<rect width="60" height="43.1308" fill="white"/>
</clipPath>
</defs>
</svg>
